<?xml version="1.0" encoding="UTF-8"?> <svg xmlns="http://www.w3.org/2000/svg" viewBox="0 0 250 100"><defs><style>.cls-1,.cls-2{fill:#fff;}.cls-1{opacity:0.8;}</style></defs><g id="References"><g id="Layer_1" data-name="Layer 1"><polygon class="cls-1" points="27.53 64.5 27.53 35.79 33.53 35.79 33.53 59.73 42.52 59.73 42.52 64.5 27.53 64.5"></polygon><rect class="cls-1" x="68.51" y="35.79" width="6.01" height="28.71"></rect><polygon class="cls-1" points="77.98 64.5 77.98 35.79 86.09 35.79 93.72 55.68 93.81 55.68 93.81 35.79 99.41 35.79 99.41 64.5 91.5 64.5 83.66 43.5 83.59 43.5 83.59 64.5 77.98 64.5"></polygon><path class="cls-1" d="M14.82,35.79,0,64.5H6.53l3.08-6.36H18V64.5h6V35.79Zm3.15,18H11.74l6-12.46H18Z"></path><path class="cls-2" d="M108.33,35.82,93.52,64.53H100l3.08-6.37h8.34v6.37h6V35.82Zm3.16,18h-6.24l6-12.44h.26Z"></path><path class="cls-1" d="M51.62,35.79,43.67,64.5h5.89l1.63-6.36h8.25L61,64.5h6.32L59.53,35.79Zm.79,18,2.75-12.46h.08l2.9,12.46Z"></path><polygon class="cls-2" points="120.68 64.48 120.68 35.91 135.52 35.91 135.52 40.31 126.66 40.31 126.66 47.63 134.53 47.63 134.53 52.02 126.66 52.02 126.66 64.48 120.68 64.48"></polygon><polygon class="cls-2" points="137.96 64.48 137.96 35.91 152.79 35.91 152.79 40.31 143.92 40.31 143.92 47.63 151.8 47.63 151.8 52.02 143.92 52.02 143.92 64.48 137.96 64.48"></polygon><polygon class="cls-2" points="155.05 64.48 155.05 35.91 161.03 35.91 161.03 59.73 169.97 59.73 169.97 64.48 155.05 64.48"></polygon><polygon class="cls-2" points="172.41 64.48 172.41 35.91 188 35.91 188 40.31 178.39 40.31 178.39 47.34 186.65 47.34 186.65 51.74 178.39 51.74 178.39 60.1 188.32 60.1 188.32 64.48 172.41 64.48"></polygon><polygon class="cls-2" points="190.78 64.48 190.78 35.91 196.76 35.91 196.76 59.73 205.71 59.73 205.71 64.48 190.78 64.48"></polygon><path class="cls-2" d="M250,35.91V56.14c0,4.27-2.42,8.78-9.7,8.78-6.57,0-9.74-3.41-9.74-8.78V35.91h6V55.78c0,3.54,1.5,4.91,3.68,4.91,2.61,0,3.79-1.75,3.79-4.91V35.91Z"></path><path class="cls-2" d="M216.8,35.26c-6.92,0-11.2,4.83-11.2,14.89S209.82,65,216.8,65,228,60.15,228,50.15s-4.27-14.89-11.19-14.89m0,25.4c-3.37,0-4.81-4-4.81-10.5s1.44-10.61,4.81-10.61,4.81,4.06,4.81,10.61-1.44,10.5-4.81,10.5"></path></g></g></svg> 