<?xml version="1.0" encoding="UTF-8"?> <svg xmlns="http://www.w3.org/2000/svg" id="Logo_Variations" data-name="Logo &amp; Variations" viewBox="0 0 400 110"><defs><style>.cls-1{fill:#fff;}</style></defs><g id="Monochrome_blanc" data-name="Monochrome blanc"><path class="cls-1" d="M148.73,94a15.15,15.15,0,0,1-3-.29,12.47,12.47,0,0,1-2.59-.83A10,10,0,0,1,141,91.55l.84-1.92a13,13,0,0,0,2,1.23,9,9,0,0,0,2.24.76,13.42,13.42,0,0,0,2.63.25,6.3,6.3,0,0,0,3.87-1,3.05,3.05,0,0,0,1.27-2.57,2.64,2.64,0,0,0-.39-1.45,3.21,3.21,0,0,0-1.28-1.05,9.58,9.58,0,0,0-2.31-.72l-3-.61a8.18,8.18,0,0,1-4.08-1.9,4.72,4.72,0,0,1-1.35-3.53,5.49,5.49,0,0,1,.94-3.2A6.23,6.23,0,0,1,145,73.74,9.56,9.56,0,0,1,148.9,73a11.25,11.25,0,0,1,2.64.29,9.33,9.33,0,0,1,2.31.85,8.15,8.15,0,0,1,1.88,1.38l-.85,1.86a8.61,8.61,0,0,0-2.75-1.73,9.57,9.57,0,0,0-3.26-.53,7,7,0,0,0-2.66.46,4,4,0,0,0-1.74,1.35,3.45,3.45,0,0,0-.62,2,2.9,2.9,0,0,0,.85,2.21,5.63,5.63,0,0,0,2.81,1.19l3,.64a9.49,9.49,0,0,1,4.34,1.84,4.23,4.23,0,0,1,1.41,3.36,5.14,5.14,0,0,1-.92,3,5.89,5.89,0,0,1-2.61,2.05A10.06,10.06,0,0,1,148.73,94Z"></path><path class="cls-1" d="M166.07,94a7.88,7.88,0,0,1-3.85-.89,6.17,6.17,0,0,1-2.5-2.51,8,8,0,0,1-.89-3.89,8,8,0,0,1,.88-3.85,6.52,6.52,0,0,1,2.39-2.57,6.67,6.67,0,0,1,3.53-.93,6.13,6.13,0,0,1,3.28.84A5.56,5.56,0,0,1,171,82.57a8.52,8.52,0,0,1,.74,3.69v.9H160.64V85.62h9.55l-.46.38a5.71,5.71,0,0,0-1-3.62,3.63,3.63,0,0,0-3-1.29,4.46,4.46,0,0,0-2.51.68,4.27,4.27,0,0,0-1.56,1.89,7,7,0,0,0-.52,2.8v.18a7,7,0,0,0,.57,3,3.85,3.85,0,0,0,1.7,1.84,5.44,5.44,0,0,0,2.7.63,7.62,7.62,0,0,0,2.42-.39,6.48,6.48,0,0,0,2.22-1.3l.82,1.66a6.94,6.94,0,0,1-2.44,1.39A9,9,0,0,1,166.07,94Z"></path><path class="cls-1" d="M175.22,93.73V79.61h2.29V83h-.29a4.67,4.67,0,0,1,1.72-2.6,6.15,6.15,0,0,1,3.22-1l.84-.09.18,2-1.49.18a4.7,4.7,0,0,0-3,1.26,4.08,4.08,0,0,0-1.06,3v8Z"></path><path class="cls-1" d="M190.7,93.73l-6.07-14.12h2.55L192.24,92h-.79l5.15-12.37H199l-6.1,14.12Z"></path><path class="cls-1" d="M201.27,76.09V73.45h2.91v2.64Zm.29,17.64V79.61h2.36V93.73Z"></path><path class="cls-1" d="M214.34,94a7,7,0,0,1-3.66-.93,6.19,6.19,0,0,1-2.36-2.6,8.55,8.55,0,0,1-.83-3.88,8.3,8.3,0,0,1,.83-3.86,5.82,5.82,0,0,1,2.36-2.5,7.34,7.34,0,0,1,3.66-.87,7.53,7.53,0,0,1,2.59.46,5.73,5.73,0,0,1,2.12,1.31l-.81,1.71a5.56,5.56,0,0,0-3.75-1.57,4.25,4.25,0,0,0-3.4,1.38,5.94,5.94,0,0,0-1.19,4,6.16,6.16,0,0,0,1.19,4,4.12,4.12,0,0,0,3.4,1.47,5.44,5.44,0,0,0,1.9-.38,5.27,5.27,0,0,0,1.85-1.22l.81,1.72a5.8,5.8,0,0,1-2.14,1.32A7.3,7.3,0,0,1,214.34,94Z"></path><path class="cls-1" d="M227.94,94a7.88,7.88,0,0,1-3.85-.89,6.17,6.17,0,0,1-2.5-2.51,9,9,0,0,1,0-7.74A6.52,6.52,0,0,1,224,80.28a6.67,6.67,0,0,1,3.53-.93,6.13,6.13,0,0,1,3.28.84,5.56,5.56,0,0,1,2.11,2.38,8.52,8.52,0,0,1,.74,3.69v.9H222.51V85.62h9.55l-.46.38a5.71,5.71,0,0,0-1-3.62,3.63,3.63,0,0,0-3-1.29,4.48,4.48,0,0,0-2.51.68,4.27,4.27,0,0,0-1.56,1.89,7.14,7.14,0,0,0-.52,2.8v.18a7,7,0,0,0,.57,3,3.9,3.9,0,0,0,1.7,1.84,5.44,5.44,0,0,0,2.7.63,7.62,7.62,0,0,0,2.42-.39,6.61,6.61,0,0,0,2.23-1.3l.81,1.66A6.94,6.94,0,0,1,231,93.46,9,9,0,0,1,227.94,94Z"></path><path class="cls-1" d="M241.85,94a10.61,10.61,0,0,1-2.13-.22,10,10,0,0,1-1.92-.61,6.39,6.39,0,0,1-1.53-.94l.76-1.66a6.82,6.82,0,0,0,1.51.91,7.16,7.16,0,0,0,1.66.54,8.14,8.14,0,0,0,1.71.18,4.31,4.31,0,0,0,2.5-.61,2,2,0,0,0,.84-1.66,1.62,1.62,0,0,0-.55-1.29,3.93,3.93,0,0,0-1.74-.74l-2.65-.58A5.11,5.11,0,0,1,237.6,86a3.35,3.35,0,0,1-.89-2.41,3.77,3.77,0,0,1,.68-2.25,4.47,4.47,0,0,1,1.93-1.47,7.52,7.52,0,0,1,2.91-.52,8.9,8.9,0,0,1,1.89.2,7.63,7.63,0,0,1,1.7.6,5.11,5.11,0,0,1,1.38,1l-.79,1.65a5.62,5.62,0,0,0-1.25-.88,6.4,6.4,0,0,0-1.43-.55,5.93,5.93,0,0,0-1.5-.19,4,4,0,0,0-2.47.64,2,2,0,0,0-.84,1.68,1.82,1.82,0,0,0,.52,1.34,3.14,3.14,0,0,0,1.63.75l2.64.56a5.88,5.88,0,0,1,2.83,1.29,3.13,3.13,0,0,1,1,2.39,3.68,3.68,0,0,1-.7,2.23,4.39,4.39,0,0,1-2,1.45A7.94,7.94,0,0,1,241.85,94Z"></path><path class="cls-1" d="M264,94a6,6,0,0,1-3.29-.9,5.91,5.91,0,0,1-2.18-2.54,10.24,10.24,0,0,1,0-7.79,5.82,5.82,0,0,1,2.18-2.53,6,6,0,0,1,3.29-.88,5.58,5.58,0,0,1,3.29,1,4.59,4.59,0,0,1,1.83,2.58h-.32V73.25h2.35V93.73h-2.3V90.36h.3A4.75,4.75,0,0,1,267.31,93,5.51,5.51,0,0,1,264,94Zm.5-1.89a3.94,3.94,0,0,0,3.18-1.41,7.53,7.53,0,0,0,0-8.06,4.32,4.32,0,0,0-6.35,0,7.42,7.42,0,0,0,0,8.06A4,4,0,0,0,264.51,92.1Z"></path><path class="cls-1" d="M276.48,79.55l-1.08-.87a4.61,4.61,0,0,0,.8-1,3.75,3.75,0,0,0,.38-1,4.94,4.94,0,0,0,.1-1l.72.46h-2.12v-3h3v2.09a7.16,7.16,0,0,1-.16,1.49,5.08,5.08,0,0,1-.54,1.38A5.77,5.77,0,0,1,276.48,79.55Z"></path><path class="cls-1" d="M287.57,94a7.91,7.91,0,0,1-3.85-.89,6.29,6.29,0,0,1-2.5-2.51,9,9,0,0,1,0-7.74,6.47,6.47,0,0,1,2.4-2.57,6.62,6.62,0,0,1,3.53-.93,6.15,6.15,0,0,1,3.28.84,5.54,5.54,0,0,1,2.1,2.38,8.38,8.38,0,0,1,.74,3.69v.9H282.14V85.62h9.56l-.47.38a5.65,5.65,0,0,0-1-3.62,3.63,3.63,0,0,0-3-1.29,4.5,4.5,0,0,0-2.51.68,4.25,4.25,0,0,0-1.55,1.89,7,7,0,0,0-.53,2.8v.18a7,7,0,0,0,.57,3,4,4,0,0,0,1.7,1.84,5.5,5.5,0,0,0,2.7.63,7.72,7.72,0,0,0,2.43-.39,6.67,6.67,0,0,0,2.22-1.3l.81,1.66a6.94,6.94,0,0,1-2.44,1.39A9,9,0,0,1,287.57,94Z"></path><path class="cls-1" d="M296.72,93.73V79.61H299v3.14h-.32a4.8,4.8,0,0,1,2-2.55,5.91,5.91,0,0,1,3.18-.85,5.77,5.77,0,0,1,2.8.61,3.76,3.76,0,0,1,1.67,1.84,7.68,7.68,0,0,1,.55,3.12v8.81h-2.35V85.07a6,6,0,0,0-.33-2.15,2.47,2.47,0,0,0-1-1.25,3.69,3.69,0,0,0-1.84-.41,4.48,4.48,0,0,0-2.24.54,3.67,3.67,0,0,0-1.48,1.54,5,5,0,0,0-.53,2.34v8Z"></path><path class="cls-1" d="M318.94,94a4.88,4.88,0,0,1-3.74-1.34,5.33,5.33,0,0,1-1.25-3.8V81.44h-2.76V79.61H314V75.28h2.35v4.33h4.47v1.83H316.3v7.17a3.9,3.9,0,0,0,.7,2.52,2.75,2.75,0,0,0,2.26.85,4.22,4.22,0,0,0,.93-.11l.84-.24.41,1.81a4.79,4.79,0,0,1-1.1.37A5.85,5.85,0,0,1,318.94,94Z"></path><path class="cls-1" d="M323.5,93.73V79.61h2.3V83h-.29a4.71,4.71,0,0,1,1.71-2.6,6.18,6.18,0,0,1,3.23-1l.84-.09.17,2-1.48.18a4.7,4.7,0,0,0-3,1.26,4.13,4.13,0,0,0-1.06,3v8Z"></path><path class="cls-1" d="M340.15,94a7.88,7.88,0,0,1-3.85-.89,6.17,6.17,0,0,1-2.5-2.51,8,8,0,0,1-.89-3.89,8,8,0,0,1,.88-3.85,6.52,6.52,0,0,1,2.39-2.57,6.64,6.64,0,0,1,3.53-.93,6.13,6.13,0,0,1,3.28.84,5.56,5.56,0,0,1,2.11,2.38,8.52,8.52,0,0,1,.74,3.69v.9H334.71V85.62h9.56l-.46.38a5.71,5.71,0,0,0-1-3.62,3.63,3.63,0,0,0-3-1.29,4.46,4.46,0,0,0-2.51.68,4.27,4.27,0,0,0-1.56,1.89,7,7,0,0,0-.52,2.8v.18a7,7,0,0,0,.57,3,3.85,3.85,0,0,0,1.7,1.84,5.44,5.44,0,0,0,2.7.63,7.62,7.62,0,0,0,2.42-.39,6.48,6.48,0,0,0,2.22-1.3l.82,1.66a6.94,6.94,0,0,1-2.44,1.39A9,9,0,0,1,340.15,94Z"></path><path class="cls-1" d="M355,94a4.92,4.92,0,0,1-3.75-1.34,5.37,5.37,0,0,1-1.25-3.8V81.44h-2.75V79.61H350V75.28h2.36v4.33h4.47v1.83h-4.47v7.17a4,4,0,0,0,.69,2.52,2.77,2.77,0,0,0,2.27.85,4.22,4.22,0,0,0,.93-.11l.84-.24.41,1.81a4.79,4.79,0,0,1-1.1.37A5.85,5.85,0,0,1,355,94Z"></path><path class="cls-1" d="M359.23,76.09V73.45h2.91v2.64Zm.29,17.64V79.61h2.35V93.73Z"></path><path class="cls-1" d="M372.68,94a7.91,7.91,0,0,1-3.85-.89,6.23,6.23,0,0,1-2.5-2.51,9,9,0,0,1,0-7.74,6.52,6.52,0,0,1,2.39-2.57,6.67,6.67,0,0,1,3.53-.93,6.17,6.17,0,0,1,3.29.84,5.54,5.54,0,0,1,2.1,2.38,8.38,8.38,0,0,1,.74,3.69v.9H367.25V85.62h9.55l-.46.38a5.65,5.65,0,0,0-1-3.62,3.63,3.63,0,0,0-3-1.29,4.48,4.48,0,0,0-2.51.68,4.27,4.27,0,0,0-1.56,1.89,7.14,7.14,0,0,0-.52,2.8v.18a7,7,0,0,0,.57,3,3.9,3.9,0,0,0,1.7,1.84,5.44,5.44,0,0,0,2.7.63,7.62,7.62,0,0,0,2.42-.39,6.61,6.61,0,0,0,2.23-1.3l.81,1.66a6.94,6.94,0,0,1-2.44,1.39A9,9,0,0,1,372.68,94Z"></path><path class="cls-1" d="M381.83,93.73V79.61h2.29v3.14h-.32a4.85,4.85,0,0,1,2-2.55,5.91,5.91,0,0,1,3.18-.85,5.79,5.79,0,0,1,2.81.61,3.8,3.8,0,0,1,1.67,1.84,7.68,7.68,0,0,1,.55,3.12v8.81h-2.35V85.07a5.73,5.73,0,0,0-.34-2.15,2.4,2.4,0,0,0-1-1.25,3.73,3.73,0,0,0-1.85-.41,4.46,4.46,0,0,0-2.23.54,3.69,3.69,0,0,0-1.49,1.54,5.11,5.11,0,0,0-.52,2.34v8Z"></path><g id="Plumeau_copy" data-name="Plumeau copy"><path class="cls-1" d="M291.56,65.08a24.1,24.1,0,0,1-10.79-2.29,17.69,17.69,0,0,1-7.27-6.39A17,17,0,0,1,270.89,47a19.76,19.76,0,0,1,2.51-10.19A17.17,17.17,0,0,1,280,30.3a18.9,18.9,0,0,1,9.2-2.25,17.57,17.57,0,0,1,9.53,2.4A15.32,15.32,0,0,1,304.54,37a21.62,21.62,0,0,1,2,9.39c0,.66,0,1.38-.11,2.18a10,10,0,0,1-.32,1.91h-23.7a8,8,0,0,0,1.69,3.14,6.87,6.87,0,0,0,3,1.83,13.74,13.74,0,0,0,4.2.6h10.93v9Zm-9.38-21.44h13.76a13.93,13.93,0,0,0-.46-2.19,7.14,7.14,0,0,0-.85-1.87,6.1,6.1,0,0,0-1.34-1.45,5.6,5.6,0,0,0-1.87-1,7.86,7.86,0,0,0-2.26-.32,6.67,6.67,0,0,0-5,2.12,6.44,6.44,0,0,0-1.31,2.15A13.11,13.11,0,0,0,282.18,43.64Z"></path><path class="cls-1" d="M328.89,65.93a14.92,14.92,0,0,1-8.5-2.44,16.56,16.56,0,0,1-5.72-6.7,21.45,21.45,0,0,1-2.08-9.49A19.73,19.73,0,0,1,315,37.46a17.91,17.91,0,0,1,6.84-6.87,20.56,20.56,0,0,1,10.47-2.54,19.68,19.68,0,0,1,10.27,2.54,17.32,17.32,0,0,1,6.56,6.84,20.32,20.32,0,0,1,2.29,9.66v18H340.74V59.29h-.22a14.15,14.15,0,0,1-2.64,3.43,11.48,11.48,0,0,1-3.77,2.36A14.57,14.57,0,0,1,328.89,65.93Zm3.24-9.46a7.51,7.51,0,0,0,4.34-1.23,8.25,8.25,0,0,0,2.82-3.42,11.38,11.38,0,0,0,1-4.87,11.21,11.21,0,0,0-1-4.73,8.06,8.06,0,0,0-2.86-3.35,8.33,8.33,0,0,0-8.78,0,8.19,8.19,0,0,0-2.9,3.35,10.93,10.93,0,0,0-1,4.69,11.83,11.83,0,0,0,1,4.87,7.62,7.62,0,0,0,7.34,4.65Z"></path><path class="cls-1" d="M388.5,28.89A5.45,5.45,0,0,0,383,34.35L383,49.41a6.83,6.83,0,0,1-.91,3.49,7,7,0,0,1-2.51,2.54,6.71,6.71,0,0,1-3.56,1,7.05,7.05,0,0,1-6.14-3.5,6.83,6.83,0,0,1-.91-3.49V34.35a5.47,5.47,0,0,0-10.94,0V49.7a15.59,15.59,0,0,0,2.19,8.21,16,16,0,0,0,6.24,5.82,20,20,0,0,0,9.63,2.19,19.75,19.75,0,0,0,9.59-2.19,15.38,15.38,0,0,0,8.33-14V34.35A5.46,5.46,0,0,0,388.5,28.89Z"></path><path class="cls-1" d="M203.43,65.08V43.71a15.56,15.56,0,0,1,2.09-8,14.63,14.63,0,0,1,6-5.61,19.57,19.57,0,0,1,9.24-2,18.79,18.79,0,0,1,4.9.6,18.56,18.56,0,0,1,4.13,1.65A13.65,13.65,0,0,1,233,32.77h.14a17.47,17.47,0,0,1,3.32-2.47,16.73,16.73,0,0,1,4.12-1.65,21.6,21.6,0,0,1,14.22,1.44,15,15,0,0,1,6,5.61,15.39,15.39,0,0,1,2.12,8V65.08h-11v-21a6.34,6.34,0,0,0-3.21-5.61,6.65,6.65,0,0,0-3.42-.88,6.37,6.37,0,0,0-3.35.92,7,7,0,0,0-2.4,2.36,6.09,6.09,0,0,0-.88,3.21v21h-11v-21a6.09,6.09,0,0,0-.88-3.21,7.13,7.13,0,0,0-2.37-2.36,6.27,6.27,0,0,0-3.38-.92,6.49,6.49,0,0,0-3.39.88,6.75,6.75,0,0,0-2.36,2.36,6.22,6.22,0,0,0-.88,3.25v21Z"></path><path class="cls-1" d="M190,28.89a5.46,5.46,0,0,0-5.47,5.46l-.07,15.06a6.84,6.84,0,0,1-.92,3.49,6.92,6.92,0,0,1-2.5,2.54,6.76,6.76,0,0,1-3.56,1,7.05,7.05,0,0,1-6.14-3.5,6.84,6.84,0,0,1-.92-3.49V34.35a5.47,5.47,0,0,0-10.93,0V49.7a15.67,15.67,0,0,0,2.18,8.21,15.92,15.92,0,0,0,6.25,5.82,22.18,22.18,0,0,0,19.22,0,15.39,15.39,0,0,0,8.32-14V34.35A5.45,5.45,0,0,0,190,28.89Z"></path><path class="cls-1" d="M150.09,15.45a5.55,5.55,0,0,0-4-1.31,5.49,5.49,0,0,0-3.88,1.31,5.27,5.27,0,0,0-1.41,4.05V65h10.65V19.5A5.34,5.34,0,0,0,150.09,15.45Z"></path><path class="cls-1" d="M131.49,23.43a17.9,17.9,0,0,0-6.67-6.35,18.87,18.87,0,0,0-9.26-2.3H99.63A5.66,5.66,0,0,0,94,20.45V65h12V50.87h9.54a19.17,19.17,0,0,0,9.26-2.26,17.55,17.55,0,0,0,6.67-6.39A17.8,17.8,0,0,0,134,32.79,17.43,17.43,0,0,0,131.49,23.43ZM120.91,37.2a6.94,6.94,0,0,1-2.8,2.76,8.24,8.24,0,0,1-3.91.94H106v-16h8.18a8.24,8.24,0,0,1,3.91.93,7,7,0,0,1,2.8,2.73,8.45,8.45,0,0,1,1,4.3A8.68,8.68,0,0,1,120.91,37.2Z"></path></g><g id="Logo_color_gradient_copy" data-name="Logo color gradient copy"><g id="Gradient"><path class="cls-1" d="M71.89,37.9a18.68,18.68,0,0,1-9.59,4.22l0,0c17.8-10.43,3.21-32.38-2.38-37.32a39.33,39.33,0,0,1-.24,12.59h0C53.41,51.16,2.67,65.49,3,109.32l0,0a10.13,10.13,0,0,0,4.83-8.11c0-.56.07-1.15.11-1.77a36,36,0,0,1,1.22-7.36,10.71,10.71,0,0,1,1.68-3.54,5.28,5.28,0,0,1,5-1.9c1.92-2.53,7.3-5,14-8.07a54.51,54.51,0,0,1-6.73-2.31s5,.54,10.52.58a98.55,98.55,0,0,0,21.62-12s-5.51.27-15.43-1.69a70.53,70.53,0,0,0,20.34-2.32,38.72,38.72,0,0,0,8.09-10.13c-3.66,1.47-8.18,2-14.78.61,0,0,9.77.28,16.67-4.89A29.9,29.9,0,0,0,71.89,37.9Z"></path><path class="cls-1" d="M68.06,62l-9.73,8.34A102.06,102.06,0,0,1,36,82.66l-3.74,1.7c-3.09,1.4-6.63,3-9.23,4.48a31,31,0,0,0,24.76,15.1A27,27,0,0,0,76.88,79.09c.66-8.38-1.95-14.81-5.91-20.48Z"></path><path class="cls-1" d="M30.2,49c7-6.81,13.78-13.39,18.61-20.58-4.3-6.92-6.62-15.16-4.06-26.52C22.15,18.41,13,43.87,15.28,64.47,20,59,25.13,54,30.2,49Z"></path></g></g></g></svg> 